<?xml version="1.0" standalone="no"?>
<!DOCTYPE svg PUBLIC "-//W3C//DTD SVG 20010904//EN"
 "http://www.w3.org/TR/2001/REC-SVG-20010904/DTD/svg10.dtd">
<svg version="1.0" xmlns="http://www.w3.org/2000/svg"
 width="1596.000000pt" height="1596.000000pt" viewBox="0 0 1596.000000 1596.000000"
 preserveAspectRatio="xMidYMid meet">
<metadata>
Created by potrace 1.14, written by Peter Selinger 2001-2017
</metadata>
<g transform="translate(0.000000,1596.000000) scale(0.100000,-0.100000)"
fill="#000000" stroke="none">
<path d="M4729 12937 c-239 -359 -438 -661 -444 -670 -9 -15 -54 12 -343 203
-183 121 -336 220 -339 220 -3 0 -12 -8 -20 -17 -42 -52 -867 -1301 -870
-1318 -3 -16 55 -59 326 -238 l329 -219 -446 -672 -445 -673 -326 215 c-178
118 -330 216 -338 219 -14 6 -907 -1333 -898 -1347 3 -5 151 -107 328 -226
177 -119 323 -218 325 -219 2 -2 -191 -294 -428 -651 -237 -356 -438 -660
-445 -675 l-14 -27 325 -216 c179 -119 334 -216 343 -216 12 0 157 210 461
665 244 366 445 665 447 665 1 0 151 -99 333 -220 182 -121 334 -220 338 -220
4 0 107 151 229 334 l221 333 331 -219 c183 -121 338 -218 345 -215 7 3 110
153 230 334 l217 330 327 -219 c179 -120 332 -218 339 -218 17 0 57 58 462
665 360 539 716 1082 826 1260 l64 103 -329 218 c-181 121 -328 224 -326 229
2 6 101 158 220 339 l217 328 22 -20 c33 -30 629 -422 642 -422 7 0 213 301
458 670 l447 670 -328 218 c-180 120 -333 222 -340 226 -8 5 -144 -191 -448
-650 -240 -362 -438 -664 -441 -671 -3 -7 -9 -13 -14 -13 -5 0 -158 99 -340
221 -182 121 -332 219 -334 217 -10 -11 -888 -1334 -892 -1344 -3 -9 113 -91
321 -229 179 -118 327 -219 330 -223 5 -8 -870 -1335 -884 -1340 -5 -2 -157
96 -339 217 -182 122 -332 221 -334 221 -2 0 -104 -151 -227 -335 -136 -204
-227 -332 -234 -328 -6 4 -158 105 -337 224 l-327 218 -225 -339 -225 -338
-321 214 c-177 118 -324 221 -327 229 -4 8 5 34 19 58 21 35 842 1273 852
1285 2 2 152 -96 335 -218 182 -121 335 -218 340 -215 38 23 890 1315 890
1348 0 3 -127 90 -282 193 -156 102 -302 202 -325 221 l-43 34 16 32 c16 29
848 1283 864 1300 4 5 149 -85 321 -201 173 -115 324 -214 336 -220 21 -12 40
15 468 659 245 369 445 672 445 675 0 6 -659 444 -668 444 -5 0 -204 -294
-443 -653z"/>
<path d="M14169 8108 c-117 -178 -217 -327 -221 -332 -4 -5 -157 91 -340 212
-184 122 -336 222 -339 222 -4 0 -104 -149 -224 -331 -165 -249 -222 -329
-235 -326 -9 2 -163 101 -341 219 l-325 214 -219 -329 c-121 -181 -225 -331
-231 -334 -7 -2 -155 91 -330 208 -175 116 -326 214 -335 216 -13 4 -71 -76
-238 -326 -122 -182 -224 -331 -227 -331 -2 0 -153 99 -334 220 -181 121 -332
220 -335 220 -3 0 -104 -149 -226 -331 -208 -313 -219 -332 -204 -350 10 -10
311 -213 671 -451 360 -238 652 -438 650 -443 -2 -6 -200 -307 -440 -669 -240
-363 -436 -666 -434 -675 3 -15 550 -390 631 -432 l37 -20 217 328 c119 180
219 332 223 336 4 5 157 -91 340 -213 275 -183 335 -219 345 -208 7 7 108 155
224 328 117 173 216 316 221 318 5 2 152 -92 327 -209 175 -117 326 -213 335
-213 11 -1 88 105 232 319 119 175 220 323 225 328 5 5 151 -86 341 -213 183
-122 336 -218 340 -213 4 4 106 155 227 335 l220 327 299 -200 c164 -110 315
-209 335 -219 35 -18 38 -18 52 -2 37 43 877 1316 874 1326 -1 6 -149 109
-327 229 -179 120 -325 224 -324 230 1 7 95 154 211 327 115 173 213 321 217
327 5 9 -201 151 -664 458 -369 245 -675 445 -679 445 -4 0 -104 -145 -222
-322z m457 -803 l661 -440 -436 -657 c-240 -362 -441 -665 -446 -674 -10 -15
-54 12 -343 205 -183 122 -337 219 -343 215 -6 -3 -109 -154 -229 -334 l-218
-327 -332 219 c-183 120 -338 217 -344 215 -7 -3 -109 -151 -227 -330 -118
-179 -217 -326 -221 -326 -3 -1 -308 199 -677 444 l-671 445 447 670 c245 369
450 670 455 670 5 0 153 -97 328 -215 175 -118 324 -217 332 -220 8 -3 88 109
233 330 121 184 223 335 227 335 4 0 151 -97 327 -215 175 -118 326 -217 334
-221 11 -4 74 84 237 330 145 219 226 333 234 328 6 -4 308 -205 672 -447z"/>
<path d="M8549 6978 c-122 -183 -227 -333 -234 -332 -6 1 -154 97 -330 214
-176 117 -325 213 -332 214 -8 1 -112 -147 -232 -329 -172 -260 -216 -333
-207 -344 11 -14 627 -428 650 -437 8 -3 100 127 236 330 136 205 227 333 234
329 6 -4 158 -105 337 -224 l327 -218 226 340 226 339 -328 218 c-180 120
-333 222 -339 226 -9 5 -84 -100 -234 -326z"/>
<path d="M6312 6542 c-115 -175 -214 -327 -220 -338 -9 -17 -8 -25 6 -36 9 -9
160 -111 334 -227 l318 -211 218 327 c120 181 221 333 225 340 8 13 -27 37
-435 306 l-237 155 -209 -316z"/>
<path d="M5175 6295 c-124 -190 -225 -333 -232 -331 -6 3 -154 100 -329 217
-175 116 -324 212 -331 213 -15 1 -453 -652 -447 -668 4 -11 652 -441 665
-441 3 0 106 150 228 333 122 183 225 332 229 330 4 -2 156 -102 337 -224
l330 -221 220 330 c121 181 221 335 223 341 2 10 -652 456 -668 456 -3 0 -104
-151 -225 -335z"/>
<path d="M3117 6123 c-19 -27 -116 -172 -217 -323 -100 -151 -186 -279 -191
-284 -5 -6 -51 19 -111 59 -57 38 -208 138 -336 222 l-232 153 -223 -334
c-202 -304 -224 -333 -242 -324 -11 6 -163 105 -338 221 -174 115 -319 208
-321 206 -12 -14 -888 -1333 -891 -1342 -3 -7 144 -111 325 -231 182 -121 330
-223 330 -228 0 -4 -99 -157 -221 -339 -121 -182 -219 -332 -217 -334 34 -29
1333 -885 1343 -885 8 0 110 144 228 324 118 177 219 326 225 330 6 4 160 -92
341 -214 182 -121 334 -220 338 -220 5 0 105 147 223 326 118 180 220 328 226
331 7 2 162 -95 345 -217 248 -166 334 -219 340 -209 4 8 104 160 223 339 118
179 212 328 208 332 -4 4 -307 206 -674 450 l-667 443 449 675 c341 512 446
678 437 686 -15 14 -654 434 -661 434 -2 0 -20 -21 -39 -47z"/>
<path d="M9208 5033 c-34 -39 -417 -622 -420 -639 -2 -15 67 -66 322 -236 179
-120 330 -218 336 -218 8 0 264 375 438 642 l18 28 -327 216 c-180 118 -333
218 -340 220 -6 3 -18 -3 -27 -13z"/>
<path d="M8077 4798 c-17 -23 -325 -485 -424 -637 -2 -2 -153 96 -336 217
-183 122 -336 222 -340 222 -4 0 -106 -149 -227 -331 -189 -283 -219 -333
-208 -347 13 -15 508 -348 607 -408 l55 -33 223 335 c123 184 227 334 231 332
4 -2 150 -99 325 -216 175 -117 325 -216 332 -218 9 -4 87 103 234 325 122
182 221 335 221 339 0 7 -409 284 -642 436 -26 17 -26 17 -51 -16z"/>
<path d="M5630 4049 c-121 -183 -219 -337 -217 -343 3 -13 647 -446 662 -446
5 0 110 151 232 335 l223 335 -328 218 c-180 120 -333 222 -339 226 -9 4 -84
-100 -233 -325z"/>
<path d="M4703 4115 c-66 -82 -415 -626 -410 -639 6 -15 614 -426 648 -438 13
-5 66 67 240 328 131 197 219 338 213 343 -8 8 -622 417 -651 434 -7 4 -23 -7
-40 -28z"/>
</g>
</svg>
